# xmcd
#
# Track frame offsets:
#	150
#	12156
#	24765
#	45468
#	59498
#	73828
#	84061
#	97121
#	111892
#	127124
#
# Disc length: 1890 seconds
#
# Revision: 0
# Processed by: cddbd v1.4PL0 Copyright (c) Steve Scherf et al.
# Submitted via: AudioConverter v4.01 Copyright (c) Dennis Rebentrost
#
DISCID=7c07600a
DTITLE=Yankee Grey - 2
DYEAR=2002
DGENRE=Country
TTITLE0=That's What Love Looks Like
TTITLE1=Different Reasons
TTITLE2=Buy A Little Time
TTITLE3=Not That Way For Everyone
TTITLE4=Friends
TTITLE5=She'll Take Your Heart
TTITLE6=Way Things Used To Be
TTITLE7=Don't Want To Be Around
TTITLE8=Sad Goodbyes
TTITLE9=Paradise
EXTD=
EXTT0=
EXTT1=
EXTT2=
EXTT3=
EXTT4=
EXTT5=
EXTT6=
EXTT7=
EXTT8=
EXTT9=
PLAYORDER=
